<svg width="27" height="27" viewBox="0 0 27 27" fill="none" xmlns="http://www.w3.org/2000/svg">
<g clip-path="url(#clip0_18_138)">
<path d="M22.2186 0.338337H4.7808C4.15266 0.337559 3.53054 0.460707 2.95007 0.700726C2.3696 0.940745 1.84218 1.29292 1.39802 1.73708C0.953855 2.18124 0.60168 2.70866 0.36166 3.28914C0.121641 3.86961 -0.0015061 4.49173 -0.000728765 5.11987V21.8801C-0.0015061 22.5083 0.121641 23.1304 0.36166 23.7109C0.60168 24.2913 0.953855 24.8187 1.39802 25.2629C1.84218 25.7071 2.3696 26.0592 2.95007 26.2993C3.53054 26.5393 4.15266 26.6624 4.7808 26.6616H22.2186C22.8467 26.6624 23.4688 26.5393 24.0493 26.2993C24.6298 26.0592 25.1572 25.7071 25.6014 25.2629C26.0455 24.8187 26.3977 24.2913 26.6377 23.7109C26.8777 23.1304 27.0009 22.5083 27.0001 21.8801V5.11987C27.0009 4.49173 26.8777 3.86961 26.6377 3.28914C26.3977 2.70866 26.0455 2.18124 25.6014 1.73708C25.1572 1.29292 24.6298 0.940745 24.0493 0.700726C23.4688 0.460707 22.8467 0.337559 22.2186 0.338337ZM25.8619 21.4414C25.865 21.9778 25.7621 22.5096 25.559 23.0062C25.3559 23.5027 25.0567 23.9542 24.6785 24.3348C24.3003 24.7153 23.8507 25.0173 23.3554 25.2235C22.8601 25.4296 22.329 25.5359 21.7925 25.5361H5.20774C4.12537 25.5345 3.08777 25.1039 2.32241 24.3385C1.55706 23.5732 1.1264 22.5356 1.12483 21.4532V5.54596C1.1264 4.46359 1.55706 3.42599 2.32241 2.66064C3.08777 1.89528 4.12537 1.46462 5.20774 1.46306H21.779C22.8618 1.46328 23.9001 1.89351 24.6658 2.65916C25.4314 3.4248 25.8617 4.46318 25.8619 5.54596V21.4414ZM10.6744 12.6562L13.8258 18.7076C13.8832 18.7996 13.8486 18.8873 13.7591 18.8873H11.7991C11.6768 18.8873 11.6194 18.857 11.5662 18.7422C10.8465 17.2572 10.1116 15.7722 9.35983 14.1767H9.33874C8.64695 15.7131 7.93334 17.2396 7.19815 18.7557C7.14668 18.8435 7.0893 18.8781 6.99649 18.8781H5.14108C5.02718 18.8781 5.01874 18.7861 5.07611 18.7203L8.15665 12.8486L5.17736 6.90777C5.10649 6.81581 5.17736 6.74915 5.24233 6.74915H7.17621C7.29011 6.74915 7.33483 6.77193 7.37871 6.87149C8.09669 8.36826 8.79845 9.87275 9.48386 11.3847H9.50496C10.1597 9.89971 10.8811 8.35734 11.5747 6.88499C11.6321 6.79302 11.6666 6.73565 11.7772 6.73565H13.587C13.679 6.73565 13.7144 6.80652 13.6579 6.89427L10.6744 12.6562ZM14.3785 14.4889C14.3785 11.8699 16.1191 9.82124 18.8875 9.82124C19.1246 9.82124 19.2477 9.82124 19.4722 9.84402V6.86474C19.4722 6.79387 19.5287 6.74999 19.5861 6.74999H21.3613C21.4533 6.74999 21.4761 6.78459 21.4761 6.83774V17.1695C21.4761 17.4724 21.4761 17.8546 21.5335 18.2672C21.5335 18.3381 21.5107 18.3591 21.4415 18.3954C20.5419 18.8229 19.5586 19.0451 18.5626 19.046C16.1191 19.0586 14.3785 17.5517 14.3785 14.4889ZM19.473 11.61C19.2652 11.5306 19.0441 11.4919 18.8216 11.4961C17.4033 11.4961 16.4144 12.5896 16.4144 14.4011C16.4144 16.4708 17.4244 17.3011 18.6993 17.3011C18.9668 17.3011 19.2621 17.2707 19.473 17.1787V11.61Z" fill="#D4DAEC"/>
</g>
<defs>
<clipPath id="clip0_18_138">
<rect width="27" height="27" fill="white"/>
</clipPath>
</defs>
</svg>
