<svg width="27" height="27" viewBox="0 0 27 27" fill="none" xmlns="http://www.w3.org/2000/svg">
<path d="M0 0.338348V26.6617H27V0.338348H0ZM1.12472 1.46307H25.8744V25.5361H1.12472V1.46307ZM9.36478 15.2449L8.47294 18.6157C8.45522 18.7127 8.41978 18.7296 8.31009 18.7296H6.65803C6.54412 18.7296 6.52641 18.6941 6.54413 18.5667L9.73856 7.3786C9.79594 7.1761 9.83053 6.99638 9.84825 6.43782C9.84825 6.36272 9.88791 6.32813 9.94528 6.32813H12.301C12.3761 6.32813 12.4149 6.34585 12.4327 6.43782L16.0144 18.5844C16.0363 18.6764 16.0144 18.7296 15.9224 18.7296H14.0678C13.9708 18.7296 13.9185 18.7076 13.9008 18.6325L12.9693 15.244H9.36141L9.36478 15.2449ZM12.5027 13.4165C12.1863 12.1728 11.4438 9.44832 11.167 8.12954H11.1451C10.908 9.44325 10.3098 11.6716 9.84909 13.4165H12.5027ZM17.5652 7.16344C17.5652 6.43866 18.0664 6.01172 18.7169 6.01172C19.4029 6.01172 19.8686 6.47747 19.8686 7.16344C19.8686 7.90594 19.3852 8.31516 18.695 8.31516C18.0225 8.31516 17.561 7.90679 17.561 7.16344H17.5652ZM17.6926 9.72085C17.6926 9.6331 17.728 9.59766 17.82 9.59766H19.5868C19.6881 9.59766 19.7227 9.6331 19.7227 9.72929V18.6106C19.7227 18.7026 19.7049 18.738 19.591 18.738H17.8504C17.7365 18.738 17.701 18.6848 17.701 18.5929V9.72L17.6926 9.72085Z" fill="#D4DAEC"/>
</svg>
