<svg width="27" height="27" viewBox="0 0 27 27" fill="none" xmlns="http://www.w3.org/2000/svg">
<path d="M0 0.338348V26.6617H27V0.338348H0ZM1.12472 1.46307H25.8744V25.5361H1.12472V1.46307ZM7.63341 15.2449L6.74156 18.6022C6.72384 18.6941 6.68419 18.7296 6.5745 18.7296H4.92244C4.81275 18.7296 4.79503 18.6899 4.81275 18.5625L8.00719 7.38704C8.06034 7.18454 8.09916 7.02254 8.11687 6.46397C8.11687 6.38888 8.15231 6.35007 8.20884 6.35007H10.5688C10.6439 6.35007 10.6785 6.372 10.6962 6.46397L14.2779 18.5794C14.2957 18.6713 14.2779 18.7245 14.186 18.7245H12.3314C12.2394 18.7245 12.1821 18.6941 12.1643 18.619L11.2371 15.2398H7.63341V15.2449ZM10.7882 13.4165C10.4718 12.1728 9.70734 9.4441 9.43059 8.12954H9.41288C9.17156 9.44325 8.56491 11.6716 8.09916 13.4165H10.7882ZM16.8176 14.5682C16.8396 16.0928 17.5601 17.1129 19.2696 17.1129C19.9378 17.1129 20.509 17.0252 21.1022 16.7611C21.1773 16.7257 21.2338 16.7476 21.2338 16.8404V18.2512C21.2338 18.3608 21.1984 18.4182 21.1199 18.4756C20.5268 18.7701 19.7885 18.9017 18.8612 18.9017C15.8903 18.9017 14.7783 16.713 14.7783 14.2611C14.7783 11.6066 16.1494 9.43566 18.5667 9.43566C21.0144 9.43566 21.8666 11.4969 21.8666 13.1667C21.8666 13.7076 21.827 14.1514 21.7747 14.3573C21.7527 14.4492 21.7173 14.4804 21.6253 14.4982C21.4009 14.5378 20.7335 14.5733 19.7488 14.5733H16.8176V14.5682ZM19.1033 13.0208C19.6788 13.0208 19.8813 13.0208 19.9387 13.003C19.9387 12.9279 19.9564 12.8621 19.9564 12.8098C19.9564 12.1947 19.6577 11.0692 18.4883 11.0692C17.4116 11.0692 16.9459 12.0184 16.8362 13.0208H19.1033Z" fill="#D4DAEC"/>
</svg>
