<svg width="32" height="32" viewBox="0 0 32 32" fill="none" xmlns="http://www.w3.org/2000/svg">
<path d="M6 2C4.93913 2 3.92172 2.42143 3.17157 3.17157C2.42143 3.92172 2 4.93913 2 6V17.994C2 19.0549 2.42143 20.0723 3.17157 20.8224C3.92172 21.5726 4.93913 21.994 6 21.994H8V24.016H7.012C6.74678 24.016 6.49243 24.1214 6.30489 24.3089C6.11736 24.4964 6.012 24.7508 6.012 25.016C6.012 25.2812 6.11736 25.5356 6.30489 25.7231C6.49243 25.9106 6.74678 26.016 7.012 26.016H10V19.996H6C5.46957 19.996 4.96086 19.7853 4.58579 19.4102C4.21071 19.0351 4 18.5264 4 17.996V6C4 5.46957 4.21071 4.96086 4.58579 4.58579C4.96086 4.21071 5.46957 4 6 4H22C22.5304 4 23.0391 4.21071 23.4142 4.58579C23.7893 4.96086 24 5.46957 24 6V14H26V6C26 4.93913 25.5786 3.92172 24.8284 3.17157C24.0783 2.42143 23.0609 2 22 2H6ZM12 19C12 18.2044 12.3161 17.4413 12.8787 16.8787C13.4413 16.3161 14.2044 16 15 16H27C27.7956 16 28.5587 16.3161 29.1213 16.8787C29.6839 17.4413 30 18.2044 30 19V27C30 27.7956 29.6839 28.5587 29.1213 29.1213C28.5587 29.6839 27.7956 30 27 30H15C14.2044 30 13.4413 29.6839 12.8787 29.1213C12.3161 28.5587 12 27.7956 12 27V19ZM16 27C16 27.2652 16.1054 27.5196 16.2929 27.7071C16.4804 27.8946 16.7348 28 17 28H25C25.2652 28 25.5196 27.8946 25.7071 27.7071C25.8946 27.5196 26 27.2652 26 27C26 26.7348 25.8946 26.4804 25.7071 26.2929C25.5196 26.1054 25.2652 26 25 26H17C16.7348 26 16.4804 26.1054 16.2929 26.2929C16.1054 26.4804 16 26.7348 16 27ZM17 20C17.2652 20 17.5196 19.8946 17.7071 19.7071C17.8946 19.5196 18 19.2652 18 19C18 18.7348 17.8946 18.4804 17.7071 18.2929C17.5196 18.1054 17.2652 18 17 18C16.7348 18 16.4804 18.1054 16.2929 18.2929C16.1054 18.4804 16 18.7348 16 19C16 19.2652 16.1054 19.5196 16.2929 19.7071C16.4804 19.8946 16.7348 20 17 20ZM20 23C20 22.7348 19.8946 22.4804 19.7071 22.2929C19.5196 22.1054 19.2652 22 19 22C18.7348 22 18.4804 22.1054 18.2929 22.2929C18.1054 22.4804 18 22.7348 18 23C18 23.2652 18.1054 23.5196 18.2929 23.7071C18.4804 23.8946 18.7348 24 19 24C19.2652 24 19.5196 23.8946 19.7071 23.7071C19.8946 23.5196 20 23.2652 20 23ZM21 20C21.2652 20 21.5196 19.8946 21.7071 19.7071C21.8946 19.5196 22 19.2652 22 19C22 18.7348 21.8946 18.4804 21.7071 18.2929C21.5196 18.1054 21.2652 18 21 18C20.7348 18 20.4804 18.1054 20.2929 18.2929C20.1054 18.4804 20 18.7348 20 19C20 19.2652 20.1054 19.5196 20.2929 19.7071C20.4804 19.8946 20.7348 20 21 20ZM24 23C24 22.7348 23.8946 22.4804 23.7071 22.2929C23.5196 22.1054 23.2652 22 23 22C22.7348 22 22.4804 22.1054 22.2929 22.2929C22.1054 22.4804 22 22.7348 22 23C22 23.2652 22.1054 23.5196 22.2929 23.7071C22.4804 23.8946 22.7348 24 23 24C23.2652 24 23.5196 23.8946 23.7071 23.7071C23.8946 23.5196 24 23.2652 24 23ZM25 20C25.2652 20 25.5196 19.8946 25.7071 19.7071C25.8946 19.5196 26 19.2652 26 19C26 18.7348 25.8946 18.4804 25.7071 18.2929C25.5196 18.1054 25.2652 18 25 18C24.7348 18 24.4804 18.1054 24.2929 18.2929C24.1054 18.4804 24 18.7348 24 19C24 19.2652 24.1054 19.5196 24.2929 19.7071C24.4804 19.8946 24.7348 20 25 20Z" fill="#D4DAEC"/>
</svg>
