<svg width="21" height="22" viewBox="0 0 21 22" fill="none" xmlns="http://www.w3.org/2000/svg">
<path d="M11.6645 -9.3254e-06L5.28855 0.0272226C2.5903 0.398425 0.278487 2.07083 0.0743003 4.92397C0.009749 5.18588 0.0415796 5.4518 0.0324458 5.69513C0.00303108 6.94193 0.0100881 8.28331 0.0291398 9.56696C0.0342259 11.5926 -0.0255995 13.2248 0.0125464 14.7307C0.0369809 19.156 2.64947 21.2241 7.39352 21.138C8.56884 21.1166 9.91276 21.109 11.454 21.1492C12.9868 21.1596 14.1685 21.2606 15.2215 21.1107C19.8982 20.4452 20.8098 17.3086 20.9997 14.7693V11.8612C20.8632 8.90719 18.7214 8.0939 16.8901 8.0339C17.0869 7.29546 17.1342 6.2915 16.9618 4.93923C16.7399 2.31161 14.875 0.257073 11.6645 -3.05176e-05V-9.3254e-06ZM6.33273 3.96814H11.5197C14.3876 4.35011 14.2525 7.44226 11.5197 7.88581H6.33273C3.46488 7.50384 3.59993 4.41169 6.33273 3.96814ZM5.15504 12.5255L14.6842 12.558C17.5658 12.9297 17.5739 16.4377 14.7845 16.8669L5.25534 16.8337C2.30022 16.4704 2.34169 12.9584 5.15504 12.5255V12.5255Z" fill="white"/>
</svg>
