<svg width="24" height="24" viewBox="0 0 24 24" fill="none" xmlns="http://www.w3.org/2000/svg">
<path fill-rule="evenodd" clip-rule="evenodd" d="M4.985 2C3.615 2 2.602 3.199 2.648 4.498C2.691 5.748 2.635 7.365 2.228 8.684C1.818 10.006 1.128 10.844 0 10.952V12.167C1.128 12.274 1.819 13.112 2.227 14.435C2.635 15.754 2.691 17.371 2.647 18.62C2.602 19.92 3.615 21.119 4.985 21.119H19.017C20.387 21.119 21.4 19.92 21.354 18.62C21.311 17.371 21.367 15.754 21.774 14.435C22.183 13.112 22.872 12.275 24 12.167V10.952C22.872 10.844 22.183 10.006 21.774 8.684C21.367 7.364 21.311 5.747 21.354 4.498C21.4 3.198 20.386 2 19.017 2H4.985ZM16.27 13.769C16.27 15.559 14.935 16.644 12.72 16.644H8.949C8.84106 16.644 8.73753 16.6011 8.66121 16.5248C8.58488 16.4485 8.542 16.3449 8.542 16.237V6.881C8.54226 6.77323 8.58526 6.66997 8.66156 6.59385C8.73786 6.51774 8.84123 6.475 8.949 6.475H12.699C14.546 6.475 15.759 7.475 15.759 9.012C15.759 10.09 14.943 11.055 13.904 11.225V11.281C15.319 11.436 16.271 12.416 16.271 13.769H16.27ZM12.31 7.764H10.16V10.802H11.971C13.371 10.802 14.143 10.238 14.143 9.23C14.143 8.286 13.479 7.764 12.31 7.764ZM10.16 12.007V15.354H12.39C13.847 15.354 14.62 14.769 14.62 13.67C14.62 12.57 13.826 12.007 12.296 12.007H10.16Z" fill="#D4DAEC"/>
</svg>
