<svg width="32" height="32" viewBox="0 0 32 32" fill="none" xmlns="http://www.w3.org/2000/svg">
<path d="M20.4425 11.5573C21.5976 11.5227 22.6937 11.0395 23.4984 10.2102C24.3031 9.38097 24.7532 8.27087 24.7532 7.11533C24.7532 5.95979 24.3031 4.8497 23.4984 4.02044C22.6937 3.19119 21.5976 2.708 20.4425 2.67333H11.5572C10.4022 2.708 9.3061 3.19119 8.50136 4.02044C7.69662 4.8497 7.24652 5.95979 7.24652 7.11533C7.24652 8.27087 7.69662 9.38097 8.50136 10.2102C9.3061 11.0395 10.4022 11.5227 11.5572 11.5573C10.3921 11.5775 9.28152 12.0545 8.46471 12.8856C7.64789 13.7167 7.19019 14.8354 7.19019 16.0007C7.19019 17.166 7.64789 18.2846 8.46471 19.1157C9.28152 19.9468 10.3921 20.4238 11.5572 20.444C10.3978 20.4724 9.29541 20.9529 8.48543 21.783C7.67545 22.6131 7.22206 23.7269 7.22206 24.8867C7.22206 26.0464 7.67545 27.1603 8.48543 27.9903C9.29541 28.8204 10.3978 29.3009 11.5572 29.3293C12.7355 29.3286 13.8653 28.8601 14.6983 28.0269C15.5314 27.1936 15.9995 26.0636 15.9999 24.8853V11.5573H20.4425Z" fill="#D4DAEC"/>
<path d="M20.4427 20.4427C22.8963 20.4427 24.8853 18.4536 24.8853 16C24.8853 13.5464 22.8963 11.5573 20.4427 11.5573C17.989 11.5573 16 13.5464 16 16C16 18.4536 17.989 20.4427 20.4427 20.4427Z" fill="#D4DAEC"/>
</svg>
