<svg width="24" height="24" viewBox="0 0 24 24" fill="none" xmlns="http://www.w3.org/2000/svg">
<g clip-path="url(#clip0_10_846)">
<path d="M4.93125 1.16719C4.78594 0.75 4.19531 0.75 4.04531 1.16719L1.39687 9.36093H7.58438C7.5797 9.36093 4.93125 1.16719 4.93125 1.16719ZM0.0421804 13.4859C-0.0796949 13.8609 0.056243 14.2781 0.374994 14.5172L11.9953 23.1422L1.39218 9.36093L0.0421804 13.4859ZM7.5797 9.36093L12 23.1422L16.4203 9.36093H7.5797ZM23.9579 13.4859L22.6079 9.36093L12 23.1422L23.6204 14.5172C23.9438 14.2781 24.075 13.8609 23.9579 13.4859ZM19.9547 1.16719C19.8094 0.75 19.2188 0.75 19.0688 1.16719L16.4157 9.36093H22.6032L19.9547 1.16719Z" fill="#99A4C4"/>
</g>
<defs>
<clipPath id="clip0_10_846">
<rect width="24" height="24" fill="white"/>
</clipPath>
</defs>
</svg>
