<svg width="24" height="24" viewBox="0 0 24 24" fill="none" xmlns="http://www.w3.org/2000/svg">
<path d="M19.17 1.99999H4.83003C4.59078 1.99464 4.35288 2.03732 4.1304 2.1255C3.90793 2.21369 3.7054 2.34559 3.53478 2.5134C3.36417 2.68122 3.22894 2.88155 3.13709 3.10253C3.04524 3.32352 2.99863 3.56068 3.00003 3.79999V20.2C2.99863 20.4393 3.04524 20.6765 3.13709 20.8974C3.22894 21.1184 3.36417 21.3188 3.53478 21.4866C3.7054 21.6544 3.90793 21.7863 4.1304 21.8745C4.35288 21.9627 4.59078 22.0053 4.83003 22H19.17C19.4089 22.004 19.6462 21.9604 19.8681 21.8717C20.0899 21.783 20.2919 21.6511 20.4623 21.4835C20.6326 21.316 20.7679 21.1162 20.8602 20.8958C20.9525 20.6755 21.0001 20.4389 21 20.2V3.79999C21.0001 3.56106 20.9525 3.32452 20.8602 3.10416C20.7679 2.88379 20.6326 2.68402 20.4623 2.51647C20.2919 2.34893 20.0899 2.21697 19.8681 2.1283C19.6462 2.03963 19.4089 1.99601 19.17 1.99999V1.99999ZM20 20.2C20 20.3059 19.979 20.4107 19.9382 20.5085C19.8974 20.6062 19.8375 20.6948 19.7622 20.7692C19.6868 20.8437 19.5975 20.9024 19.4992 20.942C19.401 20.9816 19.2959 21.0013 19.19 21H4.83003C4.7246 21.0013 4.61997 20.9816 4.5223 20.9418C4.42463 20.9021 4.33591 20.8432 4.26135 20.7687C4.1868 20.6941 4.12792 20.6054 4.08819 20.5077C4.04846 20.4101 4.02869 20.3054 4.03003 20.2V3.79999C4.02869 3.69456 4.04846 3.58993 4.08819 3.49226C4.12792 3.39459 4.1868 3.30587 4.26135 3.23131C4.33591 3.15676 4.42463 3.09788 4.5223 3.05815C4.61997 3.01842 4.7246 2.99865 4.83003 2.99999H19.17C19.2759 2.99867 19.381 3.01838 19.4792 3.05799C19.5775 3.0976 19.6668 3.15632 19.7422 3.23074C19.8175 3.30516 19.8774 3.3938 19.9182 3.49152C19.959 3.58923 19.98 3.69409 19.98 3.79999L20 20.2Z" fill="#D4DAEC"/>
<path d="M7.53003 19L9.78003 17L7.53003 15V19V19Z" fill="#D4DAEC"/>
<path d="M13.22 10C11.9406 10.0319 10.6746 10.2682 9.46997 10.7V5H7.46997V13.65L8.87997 13C10.2381 12.4112 11.6914 12.0725 13.17 12C14.17 12 14.42 12.55 14.42 13.05V19.05H16.42V13C16.4466 12.6129 16.3888 12.2247 16.2507 11.8621C16.1126 11.4995 15.8974 11.1713 15.62 10.9C15.3012 10.5961 14.9242 10.3597 14.5118 10.205C14.0994 10.0504 13.66 9.98065 13.22 10V10Z" fill="#D4DAEC"/>
<path d="M13 8.25H15C15.8141 7.34465 16.3277 6.20923 16.47 5H14.47C14.2616 6.18987 13.756 7.30779 13 8.25V8.25Z" fill="#D4DAEC"/>
</svg>
