<svg width="32" height="32" viewBox="0 0 32 32" fill="none" xmlns="http://www.w3.org/2000/svg">
<path d="M22.0001 8.10667C22.0001 8.10667 12.8801 10.3867 17.2534 15.4133C18.5467 16.8933 16.9201 18.2267 16.9201 18.2267C16.9201 18.2267 20.1867 16.56 18.6667 14.4267C17.2534 12.4667 16.1867 11.4933 22.0001 8.10667ZM16.0401 9.70667C21.4401 5.44 18.6667 2.66667 18.6667 2.66667C19.7867 7.06667 14.7201 8.4 12.8934 11.1467C11.6401 13.0133 13.5067 15.0267 16.0001 17.3333C15.0534 15.0667 11.7067 13.12 16.0401 9.70667ZM12.4934 23.2933C8.38673 24.44 15.0001 26.8 20.2134 24.5733C19.7067 24.3733 19.2134 24.1333 18.7467 23.8533C16.9334 24.2667 15.0667 24.3467 13.2267 24.0933C11.4801 23.88 12.4934 23.2933 12.4934 23.2933ZM19.5867 21.0533C17.2534 21.56 14.8401 21.68 12.4667 21.4C10.7201 21.2267 11.8667 20.3733 11.8667 20.3733C7.33339 21.88 14.3734 23.5733 20.6667 21.7333C20.2801 21.5867 19.9067 21.3333 19.5867 21.0533ZM24.1467 25.4533C24.1467 25.4533 24.9067 26.08 23.3334 26.56C20.2934 27.4667 10.7601 27.7467 8.12006 26.6C7.17339 26.1867 8.96006 25.6133 9.52006 25.4933C9.82673 25.4133 10.1334 25.3867 10.4401 25.3867C9.38673 24.6667 3.60006 26.8533 7.52006 27.4667C18.1467 29.2 26.9067 26.6667 24.1467 25.4533ZM20.4934 18.9733C20.8801 18.72 21.2934 18.5067 21.7201 18.32C21.7201 18.32 19.7067 18.6667 17.6934 18.8533C15.5601 19.0667 13.4134 19.0933 11.2801 18.9333C8.14673 18.52 13.0001 17.3333 13.0001 17.3333C11.5334 17.3333 10.0934 17.68 8.78673 18.3333C6.05339 19.6667 15.5867 20.2667 20.4934 18.9733ZM21.6934 22.2C21.6667 22.2533 21.6401 22.2933 21.5867 22.3333C28.2667 20.5867 25.8134 16.1467 22.6134 17.2533C22.4401 17.3333 22.2934 17.44 22.2001 17.5867C22.3867 17.52 22.5734 17.4667 22.7734 17.4267C24.3734 17.1067 26.6667 19.6 21.6934 22.2ZM21.8667 28.3467C17.8534 29.04 13.7467 29.0933 9.70673 28.5333C9.70673 28.5333 10.3201 29.04 13.4534 29.24C18.2534 29.5467 25.6267 29.0667 25.8001 26.8C25.8401 26.8133 25.4934 27.6667 21.8667 28.3467Z" fill="#D4DAEC"/>
</svg>
