<svg width="32" height="32" viewBox="0 0 32 32" fill="none" xmlns="http://www.w3.org/2000/svg">
<path d="M5 5V27H27V5H5ZM7 7H25V25H7V7ZM20.244 15C18.819 15 17.898 15.912 17.898 17.12C17.898 18.43 18.668 19.057 19.826 19.55L20.226 19.723C20.959 20.046 21.395 20.234 21.395 20.785C21.395 21.25 20.968 21.584 20.303 21.584C19.515 21.584 19.067 21.166 18.725 20.605L17.415 21.355C17.879 22.286 18.848 23 20.34 23C21.86 23 23 22.212 23 20.768C23 19.418 22.23 18.819 20.861 18.24L20.463 18.068C19.77 17.764 19.475 17.565 19.475 17.09C19.475 16.7 19.769 16.396 20.245 16.396C20.71 16.396 21.003 16.596 21.279 17.09L22.535 16.283C22.003 15.353 21.27 15 20.245 15H20.244ZM14.394 15.096V20.559C14.394 21.357 14.052 21.564 13.529 21.564C12.979 21.564 12.741 21.185 12.494 20.738L11.184 21.528C11.564 22.335 12.313 23 13.596 23C15.02 23 16 22.24 16 20.576V15.096H14.395H14.394Z" fill="#D4DAEC"/>
</svg>
