<svg width="92" height="92" viewBox="0 0 92 92" fill="none" xmlns="http://www.w3.org/2000/svg">
<path d="M11.5 69H40.25V74.75H11.5V69Z" fill="#D4DAEC"/>
<path d="M11.5 51.75H40.25V57.5H11.5V51.75Z" fill="#D4DAEC"/>
<path d="M74.75 40.25H17.25C15.725 40.25 14.2625 39.6442 13.1841 38.5659C12.1058 37.4875 11.5 36.025 11.5 34.5V17.25C11.5 15.725 12.1058 14.2625 13.1841 13.1841C14.2625 12.1058 15.725 11.5 17.25 11.5H74.75C76.275 11.5 77.7375 12.1058 78.8159 13.1841C79.8942 14.2625 80.5 15.725 80.5 17.25V34.5C80.5 36.025 79.8942 37.4875 78.8159 38.5659C77.7375 39.6442 76.275 40.25 74.75 40.25ZM17.25 17.25V34.5H74.75V17.25H17.25Z" fill="#D4DAEC"/>
<path d="M74.75 80.5H57.5C55.975 80.5 54.5125 79.8942 53.4341 78.8159C52.3558 77.7375 51.75 76.275 51.75 74.75V57.5C51.75 55.975 52.3558 54.5125 53.4341 53.4341C54.5125 52.3558 55.975 51.75 57.5 51.75H74.75C76.275 51.75 77.7375 52.3558 78.8159 53.4341C79.8942 54.5125 80.5 55.975 80.5 57.5V74.75C80.5 76.275 79.8942 77.7375 78.8159 78.8159C77.7375 79.8942 76.275 80.5 74.75 80.5ZM57.5 57.5V74.75H74.75V57.5H57.5Z" fill="#D4DAEC"/>
</svg>
