<svg width="218" height="218" viewBox="0 0 218 218" fill="none" xmlns="http://www.w3.org/2000/svg">
<path d="M95.375 177.125C73.6936 177.125 52.9001 168.512 37.569 153.181C22.2379 137.85 13.625 117.056 13.625 95.375C13.625 73.6936 22.2379 52.9001 37.569 37.569C52.9001 22.2379 73.6936 13.625 95.375 13.625V177.125Z" fill="#D4DAEC"/>
<path d="M121.44 32.4548C129.697 35.8852 137.201 40.9032 143.526 47.2243L153.145 37.605C145.556 30.0193 136.553 23.9967 126.644 19.8789L121.44 32.4548Z" fill="#D4DAEC"/>
<path d="M177.125 95.375C177.128 84.6417 175.005 74.014 170.878 64.1057L158.295 69.3104C161.735 77.5696 163.504 86.4284 163.5 95.375H177.125Z" fill="#D4DAEC"/>
<path d="M204.375 163.5C204.375 155.416 201.978 147.513 197.486 140.791C192.995 134.069 186.611 128.83 179.142 125.736C171.673 122.643 163.455 121.833 155.526 123.41C147.597 124.988 140.313 128.881 134.597 134.597C128.881 140.313 124.988 147.597 123.41 155.526C121.833 163.455 122.643 171.673 125.736 179.142C128.83 186.611 134.069 192.995 140.791 197.486C147.513 201.978 155.416 204.375 163.5 204.375C174.337 204.362 184.726 200.052 192.389 192.389C200.052 184.726 204.362 174.337 204.375 163.5ZM190.75 163.5C190.725 168.349 189.39 173.101 186.887 177.254L149.746 140.113C153.899 137.61 158.651 136.276 163.5 136.25C170.724 136.259 177.65 139.133 182.759 144.241C187.867 149.35 190.741 156.276 190.75 163.5V163.5ZM136.25 163.5C136.275 158.651 137.61 153.899 140.113 149.746L177.254 186.887C173.101 189.39 168.349 190.724 163.5 190.75C156.276 190.741 149.35 187.867 144.241 182.759C139.133 177.65 136.259 170.724 136.25 163.5V163.5Z" fill="#D4DAEC"/>
</svg>
