<svg width="27" height="27" viewBox="0 0 27 27" fill="none" xmlns="http://www.w3.org/2000/svg">
<path d="M0 0.338344V26.6617H27V0.338344H0ZM1.12472 1.46306H25.8744V25.5361H1.12472V1.46306ZM6.52556 6.50362C6.52556 6.42853 6.68419 6.372 6.77616 6.372C7.74254 6.33112 8.70972 6.31199 9.67697 6.31462C12.7972 6.31462 14.0096 8.02406 14.0096 10.2127C14.0096 13.0739 11.9357 14.2999 9.39516 14.2999C8.96484 14.2999 8.81972 14.2779 8.52103 14.2779V18.6022C8.52103 18.6941 8.48559 18.7338 8.39363 18.7338H6.65297C6.561 18.7338 6.52556 18.6983 6.52556 18.6064V6.50362ZM8.52103 12.4807C8.78006 12.4985 8.98678 12.4985 9.43481 12.4985C10.7485 12.4985 11.988 12.0327 11.988 10.2532C11.988 8.82478 11.1004 8.1 9.59766 8.1C9.15384 8.1 8.72775 8.11772 8.52103 8.13544V12.4807ZM18.2064 11.14C17.3146 11.14 17.0159 11.5881 17.0159 11.9576C17.0159 12.366 17.2184 12.6436 18.4089 13.2587C20.1715 14.1159 20.7292 14.9285 20.7292 16.1367C20.7292 17.9339 19.3539 18.9008 17.4994 18.9008C16.5147 18.9008 15.676 18.6941 15.1926 18.4174C15.1225 18.3819 15.1048 18.3254 15.1048 18.2326V16.5805C15.1048 16.4708 15.158 16.4312 15.2322 16.4886C15.9056 16.9264 16.6919 17.1586 17.4952 17.1568C18.387 17.1568 18.7566 16.7872 18.7566 16.2827C18.7566 15.8743 18.4975 15.5225 17.3678 14.9293C15.768 14.1649 15.0997 13.3869 15.0997 12.0859C15.0997 10.6355 16.2338 9.43144 18.198 9.43144C19.1649 9.43144 19.8458 9.58078 20.2196 9.74362C20.3116 9.801 20.3293 9.89297 20.3293 9.96806V11.5104C20.3293 11.6024 20.2719 11.6598 20.1623 11.6201C19.6611 11.3257 18.9228 11.1367 18.2022 11.1367L18.2064 11.14Z" fill="#D4DAEC"/>
</svg>
