<svg width="20" height="20" viewBox="0 0 20 20" fill="none" xmlns="http://www.w3.org/2000/svg">
<path d="M9.0001 4.5C8.2511 4.5 7.5581 4.735 6.9881 5.135C6.9511 4.562 6.8201 4.065 6.5791 3.625C7.34032 3.20374 8.19829 2.9884 9.06822 3.00025C9.93814 3.0121 10.7899 3.25074 11.5394 3.69258C12.2888 4.13442 12.9101 4.76417 13.3416 5.5196C13.7732 6.27503 14.0001 7.12999 14.0001 8H16.2511C17.2171 7.999 18.0011 8.783 18.0011 9.749V15.249C18.0012 15.479 17.956 15.7067 17.8681 15.9192C17.7801 16.1317 17.6512 16.3248 17.4885 16.4874C17.3259 16.6501 17.1328 16.779 16.9203 16.867C16.7078 16.9549 16.4801 17.0001 16.2501 17H10.7501C10.286 17 9.84085 16.8156 9.51266 16.4874C9.18448 16.1592 9.0001 15.7141 9.0001 15.25V13C8.30448 13.0009 7.61639 12.8561 6.9801 12.575C6.9931 12.235 7.0001 11.878 7.0001 11.5V11.438C7.0001 11.271 7.0001 11.079 6.9971 10.871C7.5651 11.267 8.2551 11.5 9.0001 11.5V9.75C9.0001 8.784 9.7841 8 10.7501 8H12.5001C12.5001 7.07174 12.1314 6.1815 11.475 5.52513C10.8186 4.86875 9.92836 4.5 9.0001 4.5ZM13.7711 9.5C13.5287 10.2679 13.1049 10.9661 12.5355 11.5354C11.9662 12.1048 11.268 12.5286 10.5001 12.771V15.25C10.5001 15.388 10.6121 15.5 10.7501 15.5H16.2501C16.3164 15.5 16.38 15.4737 16.4269 15.4268C16.4738 15.3799 16.5001 15.3163 16.5001 15.25V9.75C16.5001 9.6837 16.4738 9.62011 16.4269 9.57322C16.38 9.52634 16.3164 9.5 16.2501 9.5H13.7711ZM12.1631 9.5H10.7501C10.6838 9.5 10.6202 9.52634 10.5733 9.57322C10.5264 9.62011 10.5001 9.6837 10.5001 9.75V11.163C11.2289 10.8161 11.8162 10.2288 12.1631 9.5Z" fill="#D4DAEC"/>
<path d="M4.58 2.12501C4.66317 2.19748 4.72004 2.29543 4.74174 2.40359C4.76345 2.51175 4.74877 2.62405 4.7 2.72301C4.69153 2.75226 4.68716 2.78255 4.687 2.81301C4.687 2.87601 4.703 2.99601 4.854 3.14601C4.927 3.21901 4.983 3.27101 5.044 3.32801C5.094 3.37401 5.147 3.42201 5.214 3.48801C5.344 3.61201 5.481 3.75801 5.604 3.94101C5.859 4.32401 6 4.80301 6 5.50001C6 6.35301 5.684 7.08001 5.191 7.52601L5.255 7.60001C5.535 7.94401 5.698 8.39001 5.8 8.83001C6 9.70001 6 10.746 6 11.475V11.5C6 14.287 5.621 15.868 5.204 16.772C4.994 17.227 4.771 17.517 4.578 17.699C4.49953 17.7743 4.41301 17.8407 4.32 17.897C4.27741 17.9226 4.23295 17.945 4.187 17.964C4.187 17.964 4.074 18 4 18C3.926 18 3.813 17.964 3.813 17.964C3.76655 17.9462 3.72199 17.9237 3.68 17.897C3.58699 17.8407 3.50047 17.7743 3.422 17.699C3.229 17.516 3.006 17.227 2.796 16.772C2.379 15.868 2 14.287 2 11.5V11.475C2 10.745 2 9.70001 2.2 8.83001C2.302 8.39001 2.465 7.94401 2.745 7.60001C2.765 7.57501 2.787 7.55001 2.809 7.52601C2.316 7.08001 2 6.35301 2 5.50001C2 5.17401 2.087 4.78501 2.207 4.42601C2.327 4.06601 2.495 3.69401 2.689 3.39401C2.92 3.00401 3.245 2.67701 3.497 2.45701C3.63516 2.3355 3.77934 2.22102 3.929 2.11401L3.973 2.08401C4.0647 2.02288 4.17402 1.99376 4.28397 2.00118C4.39392 2.00859 4.49834 2.05212 4.581 2.12501H4.58Z" fill="#D4DAEC"/>
</svg>
