<svg width="32" height="32" viewBox="0 0 32 32" fill="none" xmlns="http://www.w3.org/2000/svg">
<path d="M20 20H30V22H20V20Z" fill="#D4DAEC"/>
<path d="M20 24H26V26H20V24Z" fill="#D4DAEC"/>
<path d="M29.9999 17V16C29.9972 13.0958 29.0905 10.2645 27.4058 7.8989C25.721 5.53333 23.3417 3.75086 20.598 2.79884C17.8542 1.84682 14.8822 1.77246 12.0943 2.58609C9.30643 3.39973 6.84094 5.06099 5.03999 7.33935C3.23904 9.61771 2.19195 12.4002 2.04404 15.3006C1.89612 18.201 2.65471 21.0756 4.21454 23.5253C5.77436 25.9751 8.05806 27.8785 10.7487 28.9715C13.4394 30.0646 16.4035 30.293 19.2299 29.625L18.7699 27.679C17.8621 27.8929 16.9325 28.0006 15.9999 28C15.8099 28 15.6249 27.981 15.4369 27.973C13.267 24.7201 12.0825 20.9098 12.0259 17H29.9999ZM27.9579 15H21.9749C21.8636 11.3154 20.915 7.70449 19.2009 4.44099C21.5634 5.09778 23.6687 6.46125 25.2342 8.34857C26.7998 10.2359 27.7509 12.5568 27.9599 15H27.9579ZM16.5639 4.02699C18.7334 7.28001 19.9175 11.0903 19.9739 15H12.0259C12.0825 11.0902 13.267 7.2799 15.4369 4.02699C15.6249 4.01999 15.8099 3.99999 15.9999 3.99999C16.1899 3.99999 16.3749 4.01899 16.5629 4.02699H16.5639ZM12.7999 4.44099C11.0854 7.70441 10.1364 11.3153 10.0249 15H4.03988C4.24894 12.5566 5.20015 10.2357 6.76592 8.34833C8.3317 6.46101 10.4371 5.0976 12.7999 4.44099ZM12.7999 27.559C10.4375 26.902 8.3325 25.5385 6.76711 23.6512C5.20172 21.7639 4.2508 19.4431 4.04188 17H10.0249C10.1361 20.6846 11.0848 24.2955 12.7989 27.559H12.7999Z" fill="#D4DAEC"/>
</svg>
