<svg width="32" height="32" viewBox="0 0 32 32" fill="none" xmlns="http://www.w3.org/2000/svg">
<g clip-path="url(#clip0_183_151)">
<path d="M15.0921 22.146C15.0771 22.176 15.0621 22.2 15.0921 22.146V22.146ZM27.5481 17.796C26.5421 17.796 25.5501 18.026 24.6481 18.471C24.3531 17.876 24.0481 17.356 23.9981 16.966C23.9381 16.511 23.8731 16.241 23.9431 15.701C24.0131 15.161 24.3281 14.396 24.3231 14.341C24.3181 14.286 24.2531 14.011 23.6081 14.006C22.9631 14.001 22.4081 14.131 22.3431 14.301C22.229 14.6116 22.1403 14.931 22.0781 15.256C21.9631 15.841 20.7891 17.931 20.1241 19.021C19.9041 18.596 19.7191 18.221 19.6791 17.921C19.6191 17.466 19.5541 17.196 19.6241 16.656C19.6941 16.116 20.0091 15.351 20.0041 15.296C19.9991 15.241 19.9341 14.966 19.2901 14.961C18.6461 14.956 18.0901 15.086 18.0251 15.256C17.9601 15.426 17.8901 15.826 17.7601 16.211C17.6301 16.596 16.0651 20.076 15.6561 20.981C15.4461 21.441 15.2661 21.811 15.1361 22.061C15.1161 22.101 15.1011 22.126 15.0911 22.146C15.1061 22.121 15.1161 22.096 15.1161 22.106C15.0061 22.321 14.9411 22.441 14.9411 22.441V22.446C14.8561 22.606 14.7611 22.751 14.7161 22.751C14.6861 22.751 14.6211 22.331 14.7311 21.756C14.9661 20.546 15.5211 18.666 15.5161 18.601C15.5111 18.566 15.6211 18.241 15.1511 18.066C14.6961 17.901 14.5311 18.176 14.4911 18.176C14.4511 18.176 14.4211 18.276 14.4211 18.276C14.4211 18.276 14.9261 16.156 13.4511 16.156C12.5311 16.156 11.2511 17.166 10.6221 18.081C10.2271 18.296 9.3721 18.761 8.4721 19.256L7.4371 19.826C7.4121 19.801 7.3921 19.776 7.3671 19.751C5.5771 17.841 2.2731 16.491 2.4131 13.926C2.4631 12.991 2.7881 10.536 8.7671 7.556C13.6671 5.116 17.5841 5.786 18.2591 7.276C19.2291 9.401 16.1641 13.356 11.0761 13.926C9.1361 14.141 8.1171 13.391 7.8621 13.111C7.5971 12.816 7.5571 12.801 7.4571 12.856C7.2921 12.946 7.3971 13.206 7.4571 13.361C7.6071 13.756 8.2321 14.456 9.2971 14.806C10.2321 15.111 12.5061 15.281 15.2551 14.216C18.3441 13.026 20.7491 9.711 20.0431 6.936C19.3251 4.116 14.6491 3.191 10.2281 4.761C7.5931 5.696 4.7441 7.166 2.6951 9.081C0.260098 11.361 -0.128902 13.346 0.0310981 14.176C0.601098 17.121 4.6601 19.041 6.2841 20.461L6.0591 20.586C5.2441 20.991 2.1501 22.611 1.3751 24.321C0.500098 26.261 1.5201 27.651 2.1891 27.841C4.2791 28.421 6.4181 27.376 7.5681 25.661C8.7181 23.946 8.5781 21.706 8.0481 20.686C8.0431 20.671 8.0331 20.661 8.0281 20.646C8.62807 20.2906 9.23313 19.9439 9.8431 19.606C9.6431 20.146 9.4981 20.796 9.4231 21.736C9.3331 22.836 9.7881 24.261 10.3781 24.821C10.6381 25.066 10.9521 25.071 11.1481 25.071C11.8381 25.071 12.1481 24.501 12.4931 23.821C12.9181 22.991 13.2931 22.026 13.2931 22.026C13.2931 22.026 12.8231 24.636 14.1081 24.636C14.5781 24.636 15.0481 24.031 15.2581 23.721V23.726C15.2581 23.726 15.2681 23.706 15.2931 23.666C15.3431 23.591 15.3681 23.546 15.3681 23.546V23.531C15.5581 23.206 15.9731 22.461 16.5981 21.231C17.4081 19.641 18.1821 17.656 18.1821 17.656C18.2571 18.092 18.3611 18.523 18.4921 18.946C18.6321 19.421 18.9271 19.941 19.1621 20.446C18.9721 20.706 18.8571 20.856 18.8571 20.856C18.8571 20.86 18.8591 20.863 18.8621 20.866C18.7121 21.066 18.5421 21.281 18.3671 21.491C17.7281 22.251 16.9671 23.121 16.8671 23.371C16.7471 23.666 16.7771 23.886 17.0071 24.056C17.1771 24.186 17.4771 24.206 17.7921 24.181C18.3671 24.141 18.7721 24.001 18.9671 23.911C19.3268 23.7821 19.6667 23.6038 19.9771 23.381C20.6021 22.921 20.9821 22.261 20.9471 21.391C20.9271 20.911 20.7721 20.431 20.5821 19.981C20.6371 19.901 20.6971 19.816 20.7521 19.731C21.4028 18.7601 21.989 17.7476 22.5071 16.7C22.5821 17.136 22.6851 17.567 22.8171 17.99C22.9371 18.395 23.1721 18.84 23.3871 19.275C22.4571 20.03 21.8821 20.905 21.6831 21.48C21.3131 22.545 21.6031 23.025 22.1481 23.135C22.3931 23.185 22.7431 23.07 23.0031 22.96C23.3891 22.831 23.7531 22.644 24.0821 22.405C24.7071 21.945 25.3121 21.3 25.2711 20.425C25.2561 20.03 25.1461 19.635 25.0011 19.255C25.7861 18.925 26.8061 18.745 28.1061 18.895C30.8901 19.22 31.4351 20.96 31.3301 21.685C31.2251 22.41 30.6401 22.815 30.4451 22.935C30.2501 23.055 30.1901 23.1 30.2051 23.19C30.2301 23.32 30.3201 23.315 30.4851 23.285C30.7151 23.245 31.9451 22.695 32.0001 21.35C32.0801 19.65 30.4451 17.78 27.5501 17.795L27.5481 17.796ZM6.0891 25.031C5.1691 26.036 3.8801 26.416 3.3251 26.096C2.7301 25.75 2.9651 24.271 4.0991 23.2C4.7891 22.55 5.6791 21.95 6.2691 21.58C6.4041 21.5 6.5991 21.38 6.8391 21.235C6.8586 21.2225 6.87862 21.2108 6.8991 21.2C6.9441 21.17 6.9941 21.145 7.0441 21.115C7.4581 22.635 7.0591 23.975 6.0891 25.03V25.031ZM12.8071 20.461C12.4871 21.246 11.8131 23.246 11.4021 23.141C11.0521 23.051 10.8371 21.526 11.3321 20.026C11.5821 19.271 12.1121 18.371 12.4271 18.021C12.9321 17.456 13.4871 17.276 13.6171 17.501C13.7921 17.796 13.0071 19.971 12.8071 20.461ZM18.3571 23.111C18.2221 23.181 18.0971 23.226 18.0371 23.191C17.9921 23.166 18.0921 23.071 18.0921 23.071C18.0921 23.071 18.7871 22.326 19.0621 21.986C19.2221 21.786 19.4071 21.551 19.6071 21.291C19.6071 21.316 19.6121 21.341 19.6121 21.371C19.6061 22.266 18.7461 22.871 18.3561 23.111H18.3571ZM22.6371 22.136C22.5371 22.066 22.5521 21.831 22.8871 21.101C23.0171 20.816 23.3171 20.336 23.8371 19.876C23.8961 20.05 23.9281 20.232 23.9321 20.416C23.9271 21.541 23.1221 21.961 22.6371 22.136V22.136Z" fill="#D4DAEC"/>
</g>
<defs>
<clipPath id="clip0_183_151">
<rect width="32" height="32" fill="white"/>
</clipPath>
</defs>
</svg>
