<svg width="22" height="22" viewBox="0 0 22 22" fill="none" xmlns="http://www.w3.org/2000/svg">
<g clip-path="url(#clip0_12_1968)">
<path d="M19.9375 17.875C19.4731 17.8768 19.0233 18.0369 18.6622 18.3287L17.1875 17.4783V16.3742C17.6462 16.212 18.0328 15.8929 18.279 15.4732C18.5251 15.0536 18.615 14.5604 18.5328 14.0809C18.4505 13.6013 18.2013 13.1663 17.8294 12.8527C17.4574 12.5391 16.9865 12.3671 16.5 12.3671C16.0134 12.3671 15.5426 12.5391 15.1706 12.8527C14.7986 13.1663 14.5494 13.6013 14.4672 14.0809C14.3849 14.5604 14.4748 15.0536 14.721 15.4732C14.9672 15.8929 15.3538 16.212 15.8125 16.3742V17.4783L14.3378 18.3301C13.9768 18.0378 13.527 17.8772 13.0625 17.875C12.6315 17.8721 12.2104 18.0033 11.8574 18.2505C11.5044 18.4978 11.2371 18.8487 11.0925 19.2547C10.9479 19.6606 10.9333 20.1015 11.0505 20.5162C11.1678 20.9309 11.4112 21.2988 11.747 21.569C12.0828 21.8391 12.4943 21.998 12.9245 22.0237C13.3547 22.0495 13.7822 21.9407 14.1478 21.7125C14.5134 21.4843 14.7989 21.148 14.9647 20.7502C15.1306 20.3525 15.1686 19.913 15.0734 19.4927L16.5 18.6684L17.9265 19.492C17.8346 19.9088 17.8743 20.3438 18.0401 20.7371C18.206 21.1303 18.4898 21.4624 18.8525 21.6875C19.2152 21.9125 19.6387 22.0194 20.0648 21.9934C20.4908 21.9674 20.8982 21.8098 21.2308 21.5424C21.5634 21.2749 21.8048 20.9108 21.9216 20.5003C22.0385 20.0898 22.025 19.6531 21.883 19.2506C21.7411 18.8481 21.4777 18.4996 21.1292 18.2532C20.7807 18.0068 20.3643 17.8746 19.9375 17.875ZM13.0625 20.625C12.9265 20.625 12.7936 20.5847 12.6805 20.5091C12.5675 20.4336 12.4793 20.3262 12.4273 20.2006C12.3753 20.075 12.3617 19.9367 12.3882 19.8034C12.4147 19.67 12.4802 19.5475 12.5763 19.4513C12.6725 19.3552 12.795 19.2897 12.9283 19.2632C13.0617 19.2367 13.1999 19.2503 13.3256 19.3023C13.4512 19.3544 13.5586 19.4425 13.6341 19.5555C13.7096 19.6686 13.75 19.8015 13.75 19.9375C13.75 20.1198 13.6775 20.2947 13.5486 20.4236C13.4197 20.5526 13.2448 20.625 13.0625 20.625ZM16.5 13.75C16.6359 13.75 16.7689 13.7903 16.8819 13.8658C16.995 13.9414 17.0831 14.0488 17.1351 14.1744C17.1872 14.3 17.2008 14.4382 17.1743 14.5716C17.1477 14.705 17.0823 14.8275 16.9861 14.9236C16.89 15.0198 16.7675 15.0852 16.6341 15.1118C16.5007 15.1383 16.3625 15.1247 16.2369 15.0726C16.1113 15.0206 16.0039 14.9325 15.9283 14.8194C15.8528 14.7064 15.8125 14.5735 15.8125 14.4375C15.8125 14.2551 15.8849 14.0803 16.0138 13.9513C16.1428 13.8224 16.3176 13.75 16.5 13.75ZM19.9375 20.625C19.8015 20.625 19.6686 20.5847 19.5555 20.5091C19.4425 20.4336 19.3543 20.3262 19.3023 20.2006C19.2503 20.075 19.2367 19.9367 19.2632 19.8034C19.2897 19.67 19.3552 19.5475 19.4513 19.4513C19.5475 19.3552 19.67 19.2897 19.8033 19.2632C19.9367 19.2367 20.0749 19.2503 20.2006 19.3023C20.3262 19.3544 20.4336 19.4425 20.5091 19.5555C20.5846 19.6686 20.625 19.8015 20.625 19.9375C20.625 20.1198 20.5525 20.2947 20.4236 20.4236C20.2947 20.5526 20.1198 20.625 19.9375 20.625Z" fill="#D4DAEC"/>
<path d="M4.8125 15.125C5.57189 15.125 6.1875 14.5094 6.1875 13.75C6.1875 12.9906 5.57189 12.375 4.8125 12.375C4.05311 12.375 3.4375 12.9906 3.4375 13.75C3.4375 14.5094 4.05311 15.125 4.8125 15.125Z" fill="#D4DAEC"/>
<path d="M9.625 13.75C9.0811 13.75 8.54942 13.5887 8.09718 13.2865C7.64495 12.9844 7.29247 12.5549 7.08433 12.0524C6.87619 11.5499 6.82173 10.997 6.92784 10.4635C7.03395 9.93006 7.29586 9.44005 7.68046 9.05546C8.06505 8.67086 8.55506 8.40895 9.0885 8.30284C9.62195 8.19673 10.1749 8.25119 10.6774 8.45933C11.1799 8.66747 11.6094 9.01995 11.9115 9.47218C12.2137 9.92442 12.375 10.4561 12.375 11C12.3728 11.7287 12.0824 12.4269 11.5671 12.9421C11.0519 13.4574 10.3537 13.7478 9.625 13.75V13.75ZM9.625 9.625C9.35305 9.625 9.08721 9.70564 8.86109 9.85673C8.63497 10.0078 8.45874 10.2226 8.35467 10.4738C8.2506 10.7251 8.22337 11.0015 8.27642 11.2683C8.32948 11.535 8.46043 11.78 8.65273 11.9723C8.84503 12.1646 9.09003 12.2955 9.35675 12.3486C9.62348 12.4016 9.89994 12.3744 10.1512 12.2703C10.4024 12.1663 10.6172 11.99 10.7683 11.7639C10.9194 11.5378 11 11.272 11 11C10.9989 10.6357 10.8537 10.2866 10.5961 10.0289C10.3384 9.7713 9.98934 9.62609 9.625 9.625Z" fill="#D4DAEC"/>
<path d="M14.4375 9.625C15.1969 9.625 15.8125 9.00939 15.8125 8.25C15.8125 7.49061 15.1969 6.875 14.4375 6.875C13.6781 6.875 13.0625 7.49061 13.0625 8.25C13.0625 9.00939 13.6781 9.625 14.4375 9.625Z" fill="#D4DAEC"/>
<path d="M8.95125 19.4363L2.0625 15.4186V6.58215L9.625 2.17115L17.5285 6.78152L18.2215 5.59352L9.9715 0.781021C9.86633 0.719654 9.74676 0.687317 9.625 0.687317C9.50324 0.687317 9.38367 0.719654 9.2785 0.781021L1.0285 5.59352C0.924703 5.65409 0.838596 5.74081 0.778763 5.84503C0.718931 5.94926 0.687464 6.06734 0.6875 6.18752V15.8125C0.687464 15.9327 0.718931 16.0508 0.778763 16.155C0.838596 16.2592 0.924703 16.346 1.0285 16.4065L8.25894 20.625L8.95125 19.4363Z" fill="#D4DAEC"/>
</g>
<defs>
<clipPath id="clip0_12_1968">
<rect width="22" height="22" fill="white"/>
</clipPath>
</defs>
</svg>
