<svg width="24" height="24" viewBox="0 0 24 24" fill="none" xmlns="http://www.w3.org/2000/svg">
<path fill-rule="evenodd" clip-rule="evenodd" d="M7 4.054C5.67392 4.054 4.40215 4.58079 3.46447 5.51847C2.52678 6.45615 2 7.72792 2 9.054C2 10.3801 2.52678 11.6519 3.46447 12.5895C4.40215 13.5272 5.67392 14.054 7 14.054C8.32608 14.054 9.59785 13.5272 10.5355 12.5895C11.4732 11.6519 12 10.3801 12 9.054C12 7.72792 11.4732 6.45615 10.5355 5.51847C9.59785 4.58079 8.32608 4.054 7 4.054V4.054ZM5 9.054C5 9.58443 5.21071 10.0931 5.58579 10.4682C5.96086 10.8433 6.46957 11.054 7 11.054C7.53043 11.054 8.03914 10.8433 8.41421 10.4682C8.78929 10.0931 9 9.58443 9 9.054C9 8.52357 8.78929 8.01486 8.41421 7.63979C8.03914 7.26471 7.53043 7.054 7 7.054C6.46957 7.054 5.96086 7.26471 5.58579 7.63979C5.21071 8.01486 5 8.52357 5 9.054V9.054Z" fill="#99A4C3"/>
<path d="M22 10.554H17V7.554H22V10.554Z" fill="#99A4C3"/>
<path d="M11.5501 16.946C12.0756 16.9467 12.5961 16.8435 13.0816 16.6423C13.5671 16.4412 14.008 16.1461 14.3791 15.774L16.5001 17.895C15.8508 18.546 15.0792 19.0622 14.2297 19.414C13.3802 19.7658 12.4696 19.9463 11.5501 19.945C10.6306 19.9463 9.72 19.7658 8.87051 19.414C8.02102 19.0622 7.24944 18.546 6.6001 17.895L8.7221 15.775C9.09318 16.1467 9.53405 16.4414 10.0194 16.6422C10.5047 16.8429 11.0249 16.9459 11.5501 16.945V16.946Z" fill="#99A4C3"/>
</svg>
