<svg width="24" height="18" viewBox="0 0 24 18" fill="none" xmlns="http://www.w3.org/2000/svg">
<g clip-path="url(#clip0_10_844)">
<path d="M23.9999 2.06108C23.3315 2.94833 22.5116 3.70467 21.5401 4.33009C21.5497 4.49783 21.5545 4.68742 21.5545 4.89885C21.5545 6.07362 21.3626 7.2498 20.9788 8.42741C20.595 9.60503 20.0087 10.7322 19.22 11.809C18.4312 12.8857 17.4917 13.8397 16.4014 14.6707C15.3111 15.5018 14.0005 16.1644 12.4696 16.6587C10.9387 17.1529 9.29803 17.4 7.54751 17.4C4.81554 17.4 2.29966 16.7418 -0.00012207 15.4252C0.408062 15.4658 0.799545 15.4861 1.17433 15.4861C3.45667 15.4861 5.49517 14.8586 7.28982 13.6038C6.22566 13.5864 5.27263 13.294 4.43072 12.7267C3.58882 12.1593 3.00943 11.4344 2.69258 10.5519C3.00577 10.6051 3.31488 10.6317 3.6199 10.6317C4.05897 10.6317 4.491 10.5806 4.91601 10.4784C3.78035 10.2754 2.83823 9.77057 2.08964 8.96391C1.34108 8.15725 0.966797 7.22622 0.966797 6.17081V6.11641C1.66387 6.46089 2.4074 6.64412 3.1974 6.66611C2.52465 6.26582 1.99125 5.74383 1.59722 5.10013C1.20317 4.45644 1.00614 3.75984 1.00614 3.01036C1.00614 2.2199 1.22807 1.48383 1.67193 0.802157C2.90693 2.1548 4.4034 3.23587 6.16132 4.04538C7.91927 4.8549 9.80522 5.30448 11.8192 5.39412C11.7333 5.07462 11.6902 4.74121 11.6901 4.39388C11.6901 3.18115 12.1709 2.14565 13.1326 1.28739C14.0943 0.42913 15.2546 0 16.6134 0C18.036 0 19.2343 0.462324 20.2082 1.38697C21.321 1.19025 22.3629 0.834423 23.334 0.319499C22.9599 1.37034 22.239 2.181 21.1713 2.75146C22.1526 2.64739 23.0954 2.41726 23.9998 2.06108H23.9999Z" fill="#99A4C4"/>
</g>
<defs>
<clipPath id="clip0_10_844">
<rect width="24" height="17.4" fill="white"/>
</clipPath>
</defs>
</svg>
