<svg width="32" height="32" viewBox="0 0 32 32" fill="none" xmlns="http://www.w3.org/2000/svg">
<path d="M16 2.66669C8.63596 2.66669 2.66663 8.63602 2.66663 16C2.66663 23.364 8.63596 29.3334 16 29.3334C23.364 29.3334 29.3333 23.364 29.3333 16C29.3333 8.63602 23.364 2.66669 16 2.66669Z" stroke="#D4DAEC" stroke-width="1.5" stroke-linecap="round" stroke-linejoin="round"/>
<path d="M10.6666 28.224V18.6666L16 9.33331L21.3333 18.6666V28.224" stroke="#D4DAEC" stroke-width="1.5" stroke-linecap="round" stroke-linejoin="round"/>
<path d="M10.6666 18.6667C10.6666 18.6667 12.1693 20 13.3333 20C14.4973 20 16 18.6667 16 18.6667C16 18.6667 17.5026 20 18.6666 20C19.8306 20 21.3333 18.6667 21.3333 18.6667" stroke="#D4DAEC" stroke-width="1.5" stroke-linecap="round" stroke-linejoin="round"/>
</svg>
