<svg width="24" height="25" viewBox="0 0 24 25" fill="none" xmlns="http://www.w3.org/2000/svg">
<g clip-path="url(#clip0_181_152)">
<path d="M12.1042 2.79634e-06C7.38087 -0.00821963 2.9352 2.79254 0.89493 7.22582L6.63179 7.23947V7.86688C4.86527 7.65431 5.02082 8.57165 5.27089 9.54529L9.03688 18.9837L11.8049 12.4952L10.5342 9.45437C10.0726 8.63991 10.0629 7.73634 8.17456 7.82143L8.20109 7.24326L16.615 7.26373V7.91161C15.6297 7.96941 14.4435 7.66388 15.0723 9.6817L18.4753 18.6207L20.3356 13.4022C20.9447 11.2146 20.3714 9.1123 19.6475 7.05079C19.2449 5.66781 19.4327 4.51283 21.2373 4.05467C18.4828 1.24301 15.2326 0.00545226 12.1042 2.79634e-06H12.1042ZM23.5475 8.25257L18.0926 22.4715C19.599 21.1668 21.1436 20.6919 23.0338 17.0817C24.2914 14.0789 24.1619 11.2972 23.5475 8.25254V8.25257ZM0.317528 8.48291C-0.214903 12.6806 -0.166196 13.91 1.1518 17.3379C2.86983 20.6209 4.2021 21.3126 6.09301 22.6004L0.317504 8.48291H0.317528ZM12.3171 13.8091L8.27456 23.5627C11.1122 24.3726 13.6511 24.2712 15.9755 23.3702L12.3171 13.809V13.8091Z" fill="#D4DAEC"/>
</g>
<defs>
<clipPath id="clip0_181_152">
<rect width="24" height="24.1126" fill="white"/>
</clipPath>
</defs>
</svg>
